<?xml version="1.0" encoding="UTF-8"?>
<!DOCTYPE svg PUBLIC "-//W3C//DTD SVG 1.1//EN" "http://www.w3.org/Graphics/SVG/1.1/DTD/svg11.dtd">
<!-- Creator: CorelDRAW 2021 (64-Bit) -->
<svg xmlns="http://www.w3.org/2000/svg" xml:space="preserve" width="297mm" height="210mm" version="1.1" style="shape-rendering:geometricPrecision; text-rendering:geometricPrecision; image-rendering:optimizeQuality; fill-rule:evenodd; clip-rule:evenodd"
viewBox="0 0 29700 21000"
 xmlns:xlink="http://www.w3.org/1999/xlink"
 xmlns:xodm="http://www.corel.com/coreldraw/odm/2003">
 <defs>
  <style type="text/css">
   <![CDATA[
    .fil2 {fill:#EC268F}
    .fil3 {fill:#0F4269}
    .fil1 {fill:#EC268F;fill-rule:nonzero}
    .fil0 {fill:#0F4269;fill-rule:nonzero}
   ]]>
  </style>
 </defs>
 <g id="Layer_x0020_1">
  <metadata id="CorelCorpID_0Corel-Layer"/>
  <g id="_2534385564016">
   <path class="fil0" d="M7629.21 10899.56l315.36 0 0 -647.11 487.01 0 0 647.11 510.96 0 0 406.03 -510.96 0 0 883.96c0,217.12 82.5,325.67 247.49,325.67 93.14,0 180.97,-38.06 263.47,-114.19l183.62 329.9c-146.36,138.16 -324.67,207.24 -534.91,207.24 -210.24,0 -370.58,-62.03 -481.02,-186.09 -110.44,-124.07 -165.66,-305.94 -165.66,-545.61l0 -900.88 -315.36 0 0 -406.03z"/>
   <path id="_1" class="fil0" d="M12176.92 11855.42c0,-208.65 40.59,-392.64 121.76,-551.95 81.16,-159.31 193.6,-284.08 337.31,-374.31 143.7,-90.22 307.37,-135.34 491,-135.34 183.62,0 345.3,45.82 485.01,137.46 139.72,91.64 248.82,219.93 327.33,384.88 78.51,164.95 117.76,357.39 117.76,577.33l0 105.73 -1401.14 0c18.62,149.44 77.84,266.46 177.64,351.05 99.8,84.59 230.86,126.88 393.19,126.88 207.59,0 396.53,-73.31 566.85,-219.93l211.57 321.44c-95.81,101.51 -214.9,179.75 -357.28,234.74 -142.37,54.98 -294.72,82.47 -457.06,82.47 -202.26,0 -379.9,-43 -532.92,-129 -153.02,-86 -271.44,-207.24 -355.27,-363.73 -83.83,-156.49 -125.75,-339.07 -125.75,-547.72zm1413.13 -186.1c-15.97,-138.16 -63.88,-246.72 -143.72,-325.67 -79.83,-78.95 -182.29,-118.42 -307.37,-118.42 -130.4,0 -238.18,40.18 -323.33,120.54 -85.17,80.36 -137.07,188.21 -155.69,323.55l930.11 0z"/>
   <path id="_2" class="fil0" d="M10651.38 10941.85l514.95 0 -858.26 2169.73c-103.79,262.22 -208.9,446.91 -315.35,554.06 -106.45,107.14 -239.52,160.72 -399.19,160.72 -167.65,0 -319.35,-50.76 -455.08,-152.26l175.65 -359.51c82.5,59.21 161,88.82 235.52,88.82 66.53,0 125.74,-26.08 177.64,-78.25 51.89,-52.16 103.12,-145.91 153.69,-281.26l59.87 -156.49 -830.3 -1945.56 542.89 0 518.94 1412.65 479.03 -1412.65z"/>
   <polygon id="_3" class="fil0" points="11362.26,10095.96 11849.27,10095.96 11849.27,12917.02 11362.26,12917.02 "/>
   <path id="_4" class="fil0" d="M17287.16 10095.96l487.02 0 0 1108.12c61.2,-104.33 145.03,-184.69 251.48,-241.08 106.45,-56.39 226.2,-84.59 359.27,-84.59 212.9,0 379.23,71.9 498.98,215.7 119.76,143.81 179.64,344 179.64,600.59l0 1222.32 -487.01 0 0 -1133.5c0,-298.88 -119.76,-448.33 -359.27,-448.33 -135.72,0 -243.5,50.05 -323.34,150.15 -79.84,100.1 -119.75,237.56 -119.75,412.38l0 1019.3 -487.02 0 0 -2821.06z"/>
   <path id="_5" class="fil0" d="M19447.09 10941.85l487.01 0 0 1975.17 -487.01 0 0 -1975.17zm-15.97 -803.6l514.96 0 0 486.39 -514.96 0 0 -486.39z"/>
   <polygon id="_6" class="fil0" points="20285.71,12544.83 21299.64,11347.88 20321.63,11347.88 20321.63,10941.85 21882.46,10941.85 21882.46,11314.05 20868.52,12506.76 21894.43,12506.76 21894.43,12917.02 20285.71,12917.02 "/>
   <polygon id="_7" class="fil0" points="16596.25,10941.85 17079.26,10941.85 16440.57,12917.02 16009.44,12917.02 15622.23,11648.18 15235.02,12917.02 14799.9,12917.02 14165.19,10941.85 14668.18,10941.85 15047.4,12312.2 15450.58,10941.85 15813.84,10941.85 16221.02,12307.97 "/>
   <path id="_8" class="fil1" d="M23834.81 12210.7l-1025.92 0 -231.53 706.32 -534.91 0 1009.95 -2821.06 566.85 0 1005.95 2821.06 -558.86 0 -231.53 -706.32zm-510.96 -1569.14l-379.23 1150.42 754.47 0 -375.24 -1150.42z"/>
   <polygon id="_9" class="fil1" points="24888.98,10095.96 25403.94,10095.96 25403.94,12917.02 24888.98,12917.02 "/>
   <g>
    <polygon class="fil2" points="6098.41,11274.09 5465.6,11045.53 5465.69,13549.84 5755.59,13826.36 6098.38,13507.03 "/>
    <polygon class="fil3" points="4869.89,10507.07 4295.07,10299.42 4295.01,8548.82 5755.65,7187.9 7216.32,8581.33 7216.35,9712 6583.39,9957.55 6583.3,8832.69 5755.53,8043.02 4927.85,8807.89 4927.94,9887.66 6642.74,10507.07 6641.38,10507.07 7216.35,10714.27 7216.29,11364.77 7216.38,12465.33 6583.36,13055.15 6583.36,11126 "/>
    <polygon class="fil2" points="4295.09,10622.7 4927.94,10851.31 4927.94,13036.84 4295.11,12433.13 "/>
   </g>
  </g>
 </g>
</svg>
