<?xml version="1.0" encoding="UTF-8"?>
<!DOCTYPE svg PUBLIC "-//W3C//DTD SVG 1.1//EN" "http://www.w3.org/Graphics/SVG/1.1/DTD/svg11.dtd">
<!-- Creator: CorelDRAW 2021 (64-Bit) -->
<svg xmlns="http://www.w3.org/2000/svg" xml:space="preserve" width="210mm" height="148mm" version="1.1" style="shape-rendering:geometricPrecision; text-rendering:geometricPrecision; image-rendering:optimizeQuality; fill-rule:evenodd; clip-rule:evenodd"
viewBox="0 0 21000 14800"
 xmlns:xlink="http://www.w3.org/1999/xlink"
 xmlns:xodm="http://www.corel.com/coreldraw/odm/2003">
 <defs>
  <style type="text/css">
   <![CDATA[
    .fil2 {fill:#EC268F}
    .fil3 {fill:white}
    .fil1 {fill:#EC268F;fill-rule:nonzero}
    .fil0 {fill:white;fill-rule:nonzero}
   ]]>
  </style>
 </defs>
 <g id="Layer_x0020_1">
  <metadata id="CorelCorpID_0Corel-Layer"/>
  <g id="_1920474076464">
   <g>
    <path class="fil0" d="M3469.86 6704.36l306.75 0 0 -629.43 473.7 0 0 629.43 497 0 0 394.94 -497 0 0 859.81c0,211.19 80.25,316.77 240.73,316.77 90.59,0 176.02,-37.02 256.27,-111.07l178.6 320.89c-142.36,134.39 -315.8,201.58 -520.29,201.58 -204.5,0 -360.46,-60.34 -467.88,-181.01 -107.42,-120.68 -161.13,-297.58 -161.13,-530.7l0 -876.27 -306.75 0 0 -394.94z"/>
    <path id="_1" class="fil0" d="M7893.33 7634.11c0,-202.95 39.48,-381.91 118.43,-536.87 78.94,-154.96 188.31,-276.32 328.1,-364.09 139.77,-87.75 298.97,-131.64 477.58,-131.64 178.61,0 335.87,44.57 471.76,133.71 135.91,89.13 242.02,213.92 318.39,374.36 76.37,160.44 114.54,347.63 114.54,561.56l0 102.84 -1362.86 0c18.11,145.36 75.71,259.18 172.79,341.46 97.07,82.28 224.55,123.41 382.45,123.41 201.92,0 385.69,-71.3 551.36,-213.92l205.79 312.66c-93.19,98.74 -209.03,174.84 -347.52,228.33 -138.48,53.47 -286.67,80.21 -444.57,80.21 -196.74,0 -369.52,-41.82 -518.36,-125.47 -148.84,-83.65 -264.03,-201.58 -345.57,-353.8 -81.54,-152.21 -122.31,-329.8 -122.31,-532.75zm1374.52 -181.02c-15.53,-134.38 -62.13,-239.98 -139.79,-316.77 -77.65,-76.79 -177.31,-115.19 -298.97,-115.19 -126.84,0 -231.68,39.09 -314.5,117.25 -82.84,78.17 -133.33,183.07 -151.44,314.71l904.7 0z"/>
    <path id="_2" class="fil0" d="M6409.47 6745.5l500.88 0 -834.82 2110.45c-100.95,255.06 -203.19,434.7 -306.73,538.92 -103.54,104.22 -232.98,156.33 -388.28,156.33 -163.07,0 -310.63,-49.37 -442.65,-148.1l170.85 -349.69c80.25,57.6 156.6,86.4 229.09,86.4 64.71,0 122.3,-25.37 172.78,-76.11 50.47,-50.74 100.31,-141.93 149.49,-273.58l58.24 -152.22 -807.62 -1892.4 528.06 0 504.76 1374.05 465.95 -1374.05z"/>
    <polygon id="_3" class="fil0" points="7100.92,5922.72 7574.63,5922.72 7574.63,8666.71 7100.92,8666.71 "/>
    <path id="_4" class="fil0" d="M12863.96 5922.72l473.71 0 0 1077.84c59.53,-101.48 141.07,-179.64 244.61,-234.49 103.54,-54.85 220.02,-82.28 349.46,-82.28 207.08,0 368.87,69.94 485.35,209.81 116.48,139.88 174.73,334.6 174.73,584.18l0 1188.93 -473.71 0 0 -1102.54c0,-290.71 -116.49,-436.08 -349.45,-436.08 -132.01,0 -236.85,48.68 -314.51,146.05 -77.66,97.36 -116.48,231.07 -116.48,401.11l0 991.46 -473.71 0 0 -2743.99z"/>
    <path id="_5" class="fil0" d="M14964.88 6745.5l473.7 0 0 1921.21 -473.7 0 0 -1921.21zm-15.53 -781.65l500.89 0 0 473.1 -500.89 0 0 -473.1z"/>
    <polygon id="_6" class="fil0" points="15780.59,8304.68 16766.82,7140.43 15815.53,7140.43 15815.53,6745.5 17333.72,6745.5 17333.72,7107.53 16347.48,8267.65 17345.36,8267.65 17345.36,8666.71 15780.59,8666.71 "/>
    <polygon id="_7" class="fil0" points="12191.92,6745.5 12661.74,6745.5 12040.5,8666.71 11621.15,8666.71 11244.51,7432.53 10867.88,8666.71 10444.65,8666.71 9827.28,6745.5 10316.53,6745.5 10685.39,8078.41 11077.55,6745.5 11430.89,6745.5 11826.94,8074.29 "/>
    <path id="_8" class="fil1" d="M19232.73 7979.68l-997.89 0 -225.21 687.03 -520.3 0 982.36 -2743.99 551.37 0 978.46 2743.99 -543.59 0 -225.2 -687.03zm-497 -1526.27l-368.87 1118.99 733.86 0 -364.99 -1118.99z"/>
    <polygon id="_9" class="fil1" points="20258.1,5922.72 20758.99,5922.72 20758.99,8666.71 20258.1,8666.71 "/>
   </g>
   <g>
    <polygon class="fil2" points="1980.88,8154.34 1365.36,7932.02 1365.45,10367.91 1647.43,10636.88 1980.85,10326.27 "/>
    <polygon class="fil3" points="785.92,7408.27 226.81,7206.29 226.75,5503.52 1647.49,4179.78 3068.25,5535.14 3068.28,6634.92 2452.61,6873.76 2452.52,5779.63 1647.37,5011.54 842.3,5755.51 842.39,6805.78 2510.34,7408.27 2509.02,7408.27 3068.28,7609.81 3068.22,8242.54 3068.31,9313.03 2452.58,9886.74 2452.58,8010.29 "/>
    <polygon class="fil2" points="226.83,7520.74 842.39,7743.11 842.39,9868.93 226.85,9281.71 "/>
   </g>
  </g>
 </g>
</svg>
